# xmcd
#
# Track frame offsets: 
#        182
#        15700
#        31935
#        44522
#        59872
#        73502
#        93962
#        107980
#        126140
#        142040
#
# Disc length: 2088 seconds
#
# Revision: 0
# Processed by: cddbd v1.4PL0 Copyright (c) Steve Scherf et al.
# Submitted via: ExactAudioCopy v0.90b2
#
DISCID=9208260a
DTITLE=Tom Wopat - Don't Look Back
DYEAR=1900
DGENRE=Country
TTITLE0=Hey Little Sister
TTITLE1=Gone In A Heartbeat
TTITLE2=Lay Me Down Carolina
TTITLE3=Red Hot And Blue
TTITLE4=Not Enough Love
TTITLE5=Don't Look Back
TTITLE6=Bad Love Blues
TTITLE7=The Rain Don't Care
TTITLE8=Your Kind Of Love
TTITLE9=One More Time Won't Kill Me
EXTD=
EXTT0=
EXTT1=
EXTT2=
EXTT3=
EXTT4=
EXTT5=
EXTT6=
EXTT7=
EXTT8=
EXTT9=
PLAYORDER=
